<?xml version="1.0" encoding="utf-8"?>
<!-- Generator: Adobe Illustrator 22.0.1, SVG Export Plug-In . SVG Version: 6.00 Build 0)  -->
<svg version="1.1" id="レイヤー_1" xmlns="http://www.w3.org/2000/svg" xmlns:xlink="http://www.w3.org/1999/xlink" x="0px"
	 y="0px" viewBox="0 0 300 300" enable-background="new 0 0 300 300" xml:space="preserve">
<g>
	<g>
		<path fill="#C30D23" d="M258,273c-3.8,0-7.7-1.5-10.6-4.4L31.8,53c-5.9-5.9-5.9-15.4,0-21.2c5.9-5.9,15.4-5.9,21.2,0l215.6,215.6
			c5.9,5.9,5.9,15.4,0,21.2C265.6,271.5,261.8,273,258,273z"/>
	</g>
	<g>
		<path fill="#C30D23" d="M42.4,272.7c-3.8,0-7.7-1.5-10.6-4.4c-5.9-5.9-5.9-15.4,0-21.2L247.1,31.8c5.9-5.9,15.4-5.9,21.2,0
			c5.9,5.9,5.9,15.4,0,21.2L53,268.3C50.1,271.3,46.2,272.7,42.4,272.7z"/>
	</g>
</g>
</svg>
